<svg width="180" height="180" viewBox="0 0 180 180" fill="none" xmlns="http://www.w3.org/2000/svg">
  <defs>
    <linearGradient id="houseGradient" x1="0%" y1="0%" x2="100%" y2="100%">
      <stop offset="0%" style="stop-color:#f97316"/>
      <stop offset="100%" style="stop-color:#ea580c"/>
    </linearGradient>
    <linearGradient id="roofGradient" x1="0%" y1="0%" x2="100%" y2="100%">
      <stop offset="0%" style="stop-color:#dc2626"/>
      <stop offset="100%" style="stop-color:#b91c1c"/>
    </linearGradient>
  </defs>
  
  <!-- Background -->
  <rect width="180" height="180" rx="40" fill="#1f2937"/>
  
  <!-- House body -->
  <rect x="45" y="85" width="90" height="70" rx="4" fill="url(#houseGradient)"/>
  
  <!-- Roof -->
  <path d="M30 90 L90 35 L150 90 L140 90 L90 50 L40 90 Z" fill="url(#roofGradient)"/>
  
  <!-- Door -->
  <rect x="75" y="110" width="30" height="45" rx="3" fill="#1f2937"/>
  <circle cx="98" cy="135" r="3" fill="#fbbf24"/>
  
  <!-- Window left -->
  <rect x="52" y="95" width="18" height="18" rx="2" fill="#fef3c7"/>
  <line x1="61" y1="95" x2="61" y2="113" stroke="#f97316" stroke-width="2"/>
  <line x1="52" y1="104" x2="70" y2="104" stroke="#f97316" stroke-width="2"/>
  
  <!-- Window right -->
  <rect x="110" y="95" width="18" height="18" rx="2" fill="#fef3c7"/>
  <line x1="119" y1="95" x2="119" y2="113" stroke="#f97316" stroke-width="2"/>
  <line x1="110" y1="104" x2="128" y2="104" stroke="#f97316" stroke-width="2"/>
  
  <!-- Wrench (renovation symbol) -->
  <g transform="translate(120, 25) rotate(45)">
    <rect x="0" y="12" width="8" height="35" rx="2" fill="#fbbf24"/>
    <path d="M-4 0 L12 0 L12 8 L8 12 L0 12 L-4 8 Z" fill="#fbbf24"/>
    <rect x="2" y="2" width="4" height="6" rx="1" fill="#1f2937"/>
  </g>
  
  <!-- Sparkle (renovation/new) -->
  <g fill="#fbbf24">
    <polygon points="155,65 158,72 165,72 160,77 162,85 155,80 148,85 150,77 145,72 152,72"/>
  </g>
</svg>